<svg width="128" height="128" viewBox="0 0 128 128" xmlns="http://www.w3.org/2000/svg" xmlns:xlink="http://www.w3.org/1999/xlink" fill="none" overflow="hidden"><path d="M74.7383 24.5 66.253 32.9853 97.3657 64.098 97.3657 51.2696C97.3657 48.6174 96.3121 46.0739 94.4368 44.1985L74.7383 24.5Z" fill="#C7B2EA"/><path d="M52.1113 24.5 43.626 32.9853 74.7387 64.098 74.7387 51.2696C74.7387 48.6174 73.6852 46.0739 71.8098 44.1985L52.1113 24.5Z" fill="#C7B2EA"/><path d="M29.4844 24.5 20.9991 32.9853 52.1118 64.098 52.1118 51.2696C52.1118 48.6174 51.0582 46.0739 49.1829 44.1985L29.4844 24.5Z" fill="#C7B2EA"/><path d="M74.7383 103.695 66.253 95.21 97.3657 64.0973 97.3657 76.9258C97.3657 79.5779 96.3121 82.1215 94.4368 83.9968L74.7383 103.695Z" fill="#C7B2EA"/><path d="M52.1113 103.695 43.626 95.21 74.7387 64.0973 74.7387 76.9258C74.7387 79.5779 73.6852 82.1215 71.8098 83.9968L52.1113 103.695Z" fill="#C7B2EA"/><path d="M29.4844 103.695 20.9991 95.21 52.1118 64.0973 52.1118 76.9258C52.1118 79.5779 51.0582 82.1215 49.1829 83.9968L29.4844 103.695Z" fill="#C7B2EA"/></svg>