<svg width="128" height="128" viewBox="0 0 128 128" xmlns="http://www.w3.org/2000/svg" xmlns:xlink="http://www.w3.org/1999/xlink" fill="none" overflow="hidden"><path d="M32.8867 30.0586 41.372 38.5439 15.9162 63.9997 15.9162 51.1713C15.9162 48.5191 16.9697 45.9756 18.8451 44.1002L32.8867 30.0586Z" fill="#C7B2EA"/><path d="M55.5156 30.0586 64.0009 38.5439 38.5451 63.9997 38.5451 51.1713C38.5451 48.5191 39.5986 45.9756 41.474 44.1002L55.5156 30.0586Z" fill="#C7B2EA"/><path d="M32.8867 97.9414 41.372 89.4561 15.9162 64.0003 15.9162 76.8287C15.9162 79.4809 16.9697 82.0244 18.8451 83.8998L32.8867 97.9414Z" fill="#C7B2EA"/><path d="M55.5156 97.9414 64.0009 89.4561 38.5451 64.0003 38.5451 76.8287C38.5451 79.4809 39.5986 82.0244 41.474 83.8998L55.5156 97.9414Z" fill="#C7B2EA"/><path d="M95.1133 97.9414 86.628 89.4561 112.084 64.0003 112.084 76.8287C112.084 79.4809 111.03 82.0244 109.155 83.8998L95.1133 97.9414Z" fill="#C7B2EA"/><path d="M72.4844 97.9414 63.9991 89.4561 89.4549 64.0003 89.4549 76.8287C89.4549 79.4809 88.4014 82.0244 86.526 83.8998L72.4844 97.9414Z" fill="#C7B2EA"/><path d="M95.1133 30.0586 86.628 38.5439 112.084 63.9997 112.084 51.1713C112.084 48.5191 111.03 45.9756 109.155 44.1002L95.1133 30.0586Z" fill="#C7B2EA"/><path d="M72.4844 30.0586 63.9991 38.5439 89.4549 63.9997 89.4549 51.1713C89.4549 48.5191 88.4014 45.9756 86.526 44.1002L72.4844 30.0586Z" fill="#C7B2EA"/></svg>