<svg width="1251" height="1001" viewBox="0 0 1251 1001" xmlns="http://www.w3.org/2000/svg" xmlns:xlink="http://www.w3.org/1999/xlink" fill="none" overflow="hidden"><style>
.MsftOfcThm_Accent2_Fill_v2 {
 fill:#210D2A; 
}
</style>
<path d="M252.205 375.153 252.205 0 0 0 0 23.2548C0 89.4216 26.279 152.929 73.1015 199.752L249.598 376.248 249.598 1001 501.803 1001 501.803 728.147C501.803 661.928 475.525 598.473 428.702 551.65L252.205 375.153Z" class="MsftOfcThm_Accent2_Fill_v2" fill="#210D2A"/><path d="M1250.53 0 998.322 0 998.322 907.303 990.762 907.303C979.082 867.467 957.6 830.969 927.463 800.831L751.383 624.7 751.383 0 499.178 0 499.178 272.853C499.178 339.02 525.457 402.527 572.279 449.35L748.776 625.847 748.776 1001 1000.2 1001 1177.43 823.721C1224.25 776.899 1250.53 713.443 1250.53 647.224L1250.53 0Z" class="MsftOfcThm_Accent2_Fill_v2" fill="#210D2A"/></svg>