<svg width="128" height="128" viewBox="0 0 128 128" xmlns="http://www.w3.org/2000/svg" xmlns:xlink="http://www.w3.org/1999/xlink" fill="none" overflow="hidden"><path d="M47.5003 35.4706 47.5 47.5 59.0718 35.9305C60.9476 34.0551 62.0015 31.5112 62.0015 28.8587L62.0014 16.0016 51.016 26.9848C48.7651 29.2352 47.5004 32.2877 47.5003 35.4706Z" fill="#C7B2EA"/><path d="M80.4997 35.4704 80.5 47.5 68.9294 35.9309C67.0537 34.0555 66 31.5118 66 28.8594L66 16.002 76.9843 26.9848C79.2351 29.2352 80.4996 32.2876 80.4997 35.4704Z" fill="#C7B2EA"/><path d="M80.4997 92.5313 80.5 80.502 68.9282 92.0714C67.0524 93.9469 65.9985 96.4907 65.9985 99.1432L65.9986 112 76.984 101.017C79.2349 98.7667 80.4996 95.7143 80.4997 92.5313Z" fill="#C7B2EA"/><path d="M47.5003 92.5316 47.5 80.502 59.0706 92.071C60.9463 93.9464 62 96.4902 62 99.1426L62 112 51.0157 101.017C48.7649 98.7667 47.5004 95.7144 47.5003 92.5316Z" fill="#C7B2EA"/><path d="M92.5294 47.5003 80.5 47.5 92.0695 59.0718C93.9449 60.9476 96.4887 62.0015 99.1413 62.0015L111.998 62.0014 101.015 51.016C98.7648 48.7651 95.7123 47.5004 92.5294 47.5003Z" fill="#C7B2EA"/><path d="M92.5296 80.4997 80.5 80.5 92.0691 68.9294C93.9445 67.0537 96.4882 66 99.1406 66L111.998 66 101.015 76.9843C98.7648 79.2351 95.7124 80.4996 92.5296 80.4997Z" fill="#C7B2EA"/><path d="M35.4706 80.4997 47.5 80.5 35.9305 68.9282C34.0551 67.0524 31.5113 65.9985 28.8587 65.9985L16.0016 65.9986 26.9848 76.984C29.2352 79.2349 32.2877 80.4996 35.4706 80.4997Z" fill="#C7B2EA"/><path d="M35.4704 47.5003 47.5 47.5 35.9309 59.0706C34.0555 60.9463 31.5118 62 28.8594 62L16.002 62 26.9848 51.0157C29.2352 48.7649 32.2876 47.5004 35.4704 47.5003Z" fill="#C7B2EA"/></svg>