<svg width="128" height="128" viewBox="0 0 128 128" xmlns="http://www.w3.org/2000/svg" xmlns:xlink="http://www.w3.org/1999/xlink" fill="none" overflow="hidden"><circle cx="64" cy="64" r="12" fill="#C7B2EA"/><path d="M102.006 71.9999 89.1502 71.9996C86.4969 71.9996 83.9524 73.054 82.0768 74.9307L65.0059 92.0117 77.862 92.0117C80.5152 92.0117 83.0597 90.9573 84.9352 89.0806L102.006 71.9999Z" fill="#C7B2EA"/><path d="M66 80.0117 56.9289 89.0828C55.0536 90.9582 52.51 92.0117 49.8579 92.0117L26 92.0117 35.0711 82.9407C36.9464 81.0653 39.49 80.0117 42.1421 80.0117L66 80.0117Z" fill="#C7B2EA"/><path d="M68.9289 105.083 78 96.0117 26 96.0117 35.0711 105.083C36.9464 106.958 39.49 108.012 42.1421 108.012L61.8579 108.012C64.51 108.012 67.0536 106.958 68.9289 105.083Z" fill="#C7B2EA"/><path d="M26.006 56.0118 38.8616 56.0121C41.5148 56.0121 44.0593 54.9577 45.9349 53.0811L63.0058 36.0001 50.1497 36.0001C47.4965 36.0001 44.952 37.0544 43.0765 38.9311L26.006 56.0118Z" fill="#C7B2EA"/><path d="M62 48 71.0711 38.9289C72.9464 37.0536 75.49 36 78.1421 36L102 36 92.9289 45.0711C91.0536 46.9464 88.51 48 85.8579 48L62 48Z" fill="#C7B2EA"/><path d="M59.0711 22.9289 50 32 102 32 92.9289 22.9289C91.0536 21.0536 88.51 20 85.8579 20L66.1421 20C63.49 20 60.9464 21.0536 59.0711 22.9289Z" fill="#C7B2EA"/></svg>