<svg width="190" height="29" viewBox="0 0 190 29" xmlns="http://www.w3.org/2000/svg" xmlns:xlink="http://www.w3.org/1999/xlink" fill="none" overflow="hidden"><style>
.MsftOfcThm_Accent1_Fill_v2 {
 fill:#C7B2EA; 
}
</style>
<path d="M28.9406 8.73928 32.958 8.73928 32.958 2.78662 36.2749 2.78662 36.2749 8.79864 41.628 8.79864 41.628 11.6318 36.2749 11.6318 36.2749 24.987 36.8032 25.5139 41.6131 25.5139 41.6131 28.4969 38.1493 28.4969C34.8398 28.4969 32.958 26.8822 32.958 23.592L32.958 11.6318 28.9406 11.6318 28.9406 8.73928Z" class="MsftOfcThm_Accent1_Fill_v2" fill="#C7B2EA"/><path d="M140.367 0 143.697 0 143.697 28.49 140.367 28.49 140.367 0Z" class="MsftOfcThm_Accent1_Fill_v2" fill="#C7B2EA"/><path d="M131.381 0 134.711 0 134.711 28.49 131.381 28.49 131.381 0Z" class="MsftOfcThm_Accent1_Fill_v2" fill="#C7B2EA"/><path d="M127.223 17.4402 127.223 18.577 112.176 18.577C112.293 23.2801 114.41 26.1013 118.485 26.1013 121.268 26.1013 122.914 24.9259 123.501 23.0441L126.872 23.0441C126.244 26.4145 123.384 29.0012 118.485 29.0012 112.332 29.0012 108.883 24.4941 108.883 18.4197 108.883 12.3453 112.411 8.22998 118.406 8.22998 124.402 8.22998 127.106 12.5798 127.223 17.4387L127.223 17.4402ZM118.328 11.1314C114.762 11.1314 112.803 13.2863 112.372 15.7944L123.776 15.7944C123.58 13.2863 121.66 11.1314 118.328 11.1314Z" class="MsftOfcThm_Accent1_Fill_v2" fill="#C7B2EA"/><path d="M95.7725 9.13154 99.8478 25.0023 100.553 25.0023 104.119 8.73975 107.255 8.73975 102.944 28.4914 97.6528 28.4914 93.6161 12.6206 92.8711 12.6206 88.8344 28.4914 83.6223 28.4914 79.311 8.73975 82.4454 8.73975 86.0117 25.0023 86.7166 25.0023 90.7919 9.13154 95.7695 9.13154 95.7725 9.13154Z" class="MsftOfcThm_Accent1_Fill_v2" fill="#C7B2EA"/><path d="M77.1803 8.73975 77.1803 11.8741 75.6517 11.8741C71.7322 11.8741 69.42 14.265 69.42 18.6148L69.42 28.4899 66.0883 28.4899 66.0883 8.73975 69.3013 8.73975 69.3013 11.1306 70.0849 11.1306C71.0644 9.91514 72.9462 8.73975 75.806 8.73975L77.1773 8.73975 77.1803 8.73975Z" class="MsftOfcThm_Accent1_Fill_v2" fill="#C7B2EA"/><path d="M62.4507 17.4402 62.4507 18.577 47.4021 18.577C47.5193 23.2801 49.6356 26.1013 53.7109 26.1013 56.4936 26.1013 58.1394 24.9259 58.7271 23.0441L62.0975 23.0441C61.4712 26.4145 58.6099 29.0012 53.7109 29.0012 47.5579 29.0012 44.1089 24.4941 44.1089 18.4197 44.1089 12.3453 47.6366 8.22998 53.6323 8.22998 59.628 8.22998 62.332 12.5798 62.4492 17.4387L62.4507 17.4402ZM53.5551 11.1314C49.9888 11.1314 48.0298 13.2863 47.598 15.7944L59.0017 15.7944C58.8058 13.2863 56.8854 11.1314 53.5551 11.1314Z" class="MsftOfcThm_Accent1_Fill_v2" fill="#C7B2EA"/><path d="M18.7996 8.22854C23.7758 8.22854 26.5584 11.3243 26.5584 16.066L26.5584 28.4892 23.2267 28.4892 23.2267 16.6537C23.2267 13.0088 21.5422 11.2071 18.1719 11.2071 14.6056 11.2071 12.332 14.3029 12.332 17.7519L12.332 28.4892 9.00024 28.4892 9.00024 8.73758 12.2133 8.73758 12.2133 10.8925 12.9583 10.8925C14.0164 9.36386 16.0927 8.22705 18.7982 8.22705L18.7996 8.22854Z" class="MsftOfcThm_Accent1_Fill_v2" fill="#C7B2EA"/><path d="M0 0.509766 3.52767 0.509766 3.52767 28.4907 0 28.4907 0 0.509766Z" class="MsftOfcThm_Accent1_Fill_v2" fill="#C7B2EA"/><path d="M161.515 10.678 161.515 0 154.337 0 154.337 0.661901C154.337 2.5452 155.085 4.35282 156.417 5.68552L161.441 10.7091 161.441 28.4914 168.619 28.4914 168.619 20.7252C168.619 18.8404 167.871 17.0343 166.539 15.7016L161.515 10.678Z" class="MsftOfcThm_Accent1_Fill_v2" fill="#C7B2EA"/><path d="M189.93 0 182.752 0 182.752 25.8245 182.537 25.8245C182.204 24.6907 181.593 23.6518 180.735 22.794L175.723 17.7808 175.723 0 168.545 0 168.545 7.76621C168.545 9.64951 169.293 11.4571 170.625 12.7898L175.649 17.8135 175.649 28.4914 182.805 28.4914 187.85 23.4456C189.182 22.1128 189.93 20.3067 189.93 18.4219L189.93 0Z" class="MsftOfcThm_Accent1_Fill_v2" fill="#C7B2EA"/></svg>