<?xml version="1.0" encoding="UTF-8"?>
<svg id="Layer_1" xmlns="http://www.w3.org/2000/svg" version="1.1" viewBox="0 0 93.4 98.3">
  <!-- Generator: Adobe Illustrator 29.2.1, SVG Export Plug-In . SVG Version: 2.1.0 Build 116)  -->
  <defs>
    <style>
      .st0 {
        fill: none;
      }

      .st1 {
        fill: #c7b2ea;
      }
    </style>
  </defs>
  <path class="st1" d="M73.7,73.9l6.4-6.4-19.4-19.4v9.8c0,2,.8,4,2.2,5.4l10.6,10.6h0Z"/>
  <path class="st1" d="M73.7,22.3l6.4,6.4-19.4,19.4v-9.8c0-2,.8-4,2.2-5.4l10.6-10.6h0Z"/>
  <circle class="st1" cx="47.8" cy="48.1" r="9.2"/>
  <path class="st1" d="M22,22.3l-6.4,6.4,19.4,19.4v-9.8c0-2-.8-4-2.2-5.4l-10.7-10.6Z"/>
  <path class="st1" d="M22,73.9l-6.4-6.4,19.4-19.4v9.8c0,2-.8,4-2.2,5.4l-10.6,10.6h0Z"/>
  <path d="M73.6,73.9l6.4-6.4-19.4-19.4v9.8c0,2,.8,4,2.2,5.4l10.6,10.6h0Z"/>
  <path d="M73.6,22.3l6.4,6.4-19.4,19.4v-9.8c0-2,.8-4,2.2-5.4l10.6-10.6h0Z"/>
  <circle cx="47.8" cy="48.1" r="9.2"/>
  <path d="M22,22.3l-6.4,6.4,19.4,19.4v-9.8c0-2-.8-4-2.2-5.4l-10.7-10.6Z"/>
  <path d="M22,73.9l-6.4-6.4,19.4-19.4v9.8c0,2-.8,4-2.2,5.4l-10.6,10.6h0Z"/>
  <rect class="st0" y="0" width="93.4" height="98.3"/>
</svg>