<svg xmlns="http://www.w3.org/2000/svg" xmlns:xlink="http://www.w3.org/1999/xlink" width="1080" zoomAndPan="magnify" viewBox="0 0 810 809.999993" height="1080" preserveAspectRatio="xMidYMid meet" version="1.0"><rect x="-81" width="972" fill="#ffffff" y="-80.999999" height="971.999992" fill-opacity="1"/><rect x="-81" width="972" fill="#ffffff" y="-80.999999" height="971.999992" fill-opacity="1"/><path fill="#000000" d="M 708.75 493.59375 L 708.75 569.53125 L 556.875 569.53125 L 614.277344 512.128906 C 626.144531 500.261719 642.242188 493.59375 659.023438 493.59375 Z M 708.75 493.59375 " fill-opacity="1" fill-rule="nonzero"/><path fill="#000000" d="M 708.75 316.40625 L 708.75 240.46875 L 556.875 240.46875 L 614.277344 297.871094 C 626.144531 309.738281 642.242188 316.40625 659.023438 316.40625 Z M 708.75 316.40625 " fill-opacity="1" fill-rule="nonzero"/><path fill="#000000" d="M 708.75 367.03125 L 708.75 442.96875 L 556.875 442.96875 L 614.277344 385.566406 C 626.144531 373.699219 642.242188 367.03125 659.023438 367.03125 Z M 708.75 367.03125 " fill-opacity="1" fill-rule="nonzero"/><path fill="#000000" d="M 101.25 569.53125 L 101.25 493.59375 L 253.125 493.59375 L 195.722656 550.996094 C 183.855469 562.863281 167.757812 569.53125 150.976562 569.53125 Z M 101.25 569.53125 " fill-opacity="1" fill-rule="nonzero"/><path fill="#000000" d="M 101.25 240.46875 L 101.25 316.40625 L 253.125 316.40625 L 195.722656 259.003906 C 183.855469 247.136719 167.757812 240.46875 150.976562 240.46875 Z M 101.25 240.46875 " fill-opacity="1" fill-rule="nonzero"/><path fill="#000000" d="M 101.25 442.96875 L 101.25 367.03125 L 253.125 367.03125 L 195.722656 424.433594 C 183.855469 436.300781 167.757812 442.96875 150.976562 442.96875 Z M 101.25 442.96875 " fill-opacity="1" fill-rule="nonzero"/><path fill="#000000" d="M 310.527344 436.191406 L 253.125 493.59375 L 556.875 493.59375 L 499.472656 436.191406 C 487.605469 424.324219 471.507812 417.65625 454.726562 417.65625 L 355.273438 417.65625 C 338.492188 417.65625 322.394531 424.324219 310.527344 436.191406 Z M 310.527344 436.191406 " fill-opacity="1" fill-rule="nonzero"/><path fill="#000000" d="M 310.527344 373.808594 L 253.125 316.40625 L 556.875 316.40625 L 499.472656 373.808594 C 487.605469 385.675781 471.507812 392.34375 454.726562 392.34375 L 355.273438 392.34375 C 338.492188 392.34375 322.394531 385.675781 310.527344 373.808594 Z M 310.527344 373.808594 " fill-opacity="1" fill-rule="nonzero"/><path fill="#000000" d="M 310.527344 626.933594 L 253.125 569.53125 L 556.875 569.53125 L 499.472656 626.933594 C 487.605469 638.800781 471.507812 645.46875 454.726562 645.46875 L 355.273438 645.46875 C 338.492188 645.46875 322.394531 638.800781 310.527344 626.933594 Z M 310.527344 626.933594 " fill-opacity="1" fill-rule="nonzero"/><path fill="#000000" d="M 310.527344 183.066406 L 253.125 240.46875 L 556.875 240.46875 L 499.472656 183.066406 C 487.605469 171.199219 471.507812 164.53125 454.726562 164.53125 L 355.273438 164.53125 C 338.492188 164.53125 322.394531 171.199219 310.527344 183.066406 Z M 310.527344 183.066406 " fill-opacity="1" fill-rule="nonzero"/></svg>