<svg width="128" height="128" viewBox="0 0 128 128" fill="none" xmlns="http://www.w3.org/2000/svg">
<path d="M14 78L14 90L54 90L44.9289 80.9289C43.0536 79.0536 40.51 78 37.8579 78L14 78Z" fill="black"/>
<path d="M34.4 47.5L26 55.9853L54 84.2696V71.4411C54 68.789 52.957 66.2454 51.1005 64.3701L34.4 47.5Z" fill="black"/>
<path d="M114 78L114 90L74 90L83.0711 80.9289C84.9464 79.0536 87.49 78 90.1421 78L114 78Z" fill="black"/>
<path d="M93.6 47.5L102 55.9853L74 84.2696V71.4411C74 68.789 75.043 66.2454 76.8995 64.3701L93.6 47.5Z" fill="black"/>
<rect x="58" y="32" width="12" height="58" fill="black"/>
</svg>
