<svg xmlns="http://www.w3.org/2000/svg" xmlns:xlink="http://www.w3.org/1999/xlink" width="1080" zoomAndPan="magnify" viewBox="0 0 810 809.999993" height="1080" preserveAspectRatio="xMidYMid meet" version="1.0"><rect x="-81" width="972" fill="#ffffff" y="-80.999999" height="971.999992" fill-opacity="1"/><rect x="-81" width="972" fill="#ffffff" y="-80.999999" height="971.999992" fill-opacity="1"/><path fill="#000000" d="M 708.75 405 L 708.75 329.0625 L 480.9375 329.0625 L 538.339844 386.464844 C 550.207031 398.332031 566.304688 405 583.085938 405 Z M 708.75 405 " fill-opacity="1" fill-rule="nonzero"/><path fill="#000000" d="M 708.75 506.25 L 708.75 430.3125 L 582.1875 430.3125 L 639.589844 487.714844 C 651.457031 499.582031 667.554688 506.25 684.335938 506.25 Z M 708.75 506.25 " fill-opacity="1" fill-rule="nonzero"/><path fill="#000000" d="M 405 101.25 L 480.9375 101.25 L 480.9375 329.0625 L 423.535156 271.660156 C 411.667969 259.792969 405 243.695312 405 226.914062 Z M 405 101.25 " fill-opacity="1" fill-rule="nonzero"/><path fill="#000000" d="M 303.75 98.085938 L 379.6875 98.085938 L 379.6875 227.8125 L 322.285156 170.410156 C 310.417969 158.542969 303.75 142.445312 303.75 125.664062 Z M 303.75 98.085938 " fill-opacity="1" fill-rule="nonzero"/><path fill="#000000" d="M 480.9375 405 C 480.9375 406.242188 480.90625 407.484375 480.847656 408.726562 C 480.785156 409.96875 480.695312 411.207031 480.570312 412.441406 C 480.449219 413.679688 480.296875 414.914062 480.117188 416.140625 C 479.933594 417.371094 479.722656 418.597656 479.476562 419.816406 C 479.234375 421.035156 478.964844 422.246094 478.660156 423.453125 C 478.359375 424.65625 478.027344 425.855469 477.667969 427.042969 C 477.308594 428.234375 476.917969 429.414062 476.5 430.582031 C 476.078125 431.753906 475.632812 432.910156 475.15625 434.058594 C 474.679688 435.207031 474.179688 436.34375 473.648438 437.46875 C 473.117188 438.589844 472.558594 439.699219 471.972656 440.796875 C 471.386719 441.894531 470.773438 442.972656 470.132812 444.039062 C 469.496094 445.105469 468.828125 446.15625 468.140625 447.1875 C 467.449219 448.222656 466.734375 449.238281 465.992188 450.234375 C 465.253906 451.234375 464.488281 452.214844 463.699219 453.175781 C 462.910156 454.136719 462.101562 455.074219 461.265625 455.996094 C 460.429688 456.917969 459.574219 457.816406 458.695312 458.695312 C 457.816406 459.574219 456.917969 460.429688 455.996094 461.265625 C 455.074219 462.101562 454.136719 462.910156 453.175781 463.699219 C 452.214844 464.488281 451.234375 465.253906 450.234375 465.992188 C 449.238281 466.734375 448.222656 467.449219 447.1875 468.140625 C 446.15625 468.828125 445.105469 469.496094 444.039062 470.132812 C 442.972656 470.773438 441.894531 471.386719 440.796875 471.972656 C 439.699219 472.558594 438.589844 473.117188 437.46875 473.648438 C 436.34375 474.179688 435.207031 474.679688 434.058594 475.15625 C 432.910156 475.632812 431.753906 476.078125 430.582031 476.5 C 429.414062 476.917969 428.234375 477.308594 427.042969 477.667969 C 425.855469 478.027344 424.65625 478.359375 423.453125 478.660156 C 422.246094 478.964844 421.035156 479.234375 419.816406 479.476562 C 418.597656 479.722656 417.371094 479.933594 416.140625 480.117188 C 414.914062 480.296875 413.679688 480.449219 412.441406 480.570312 C 411.207031 480.695312 409.96875 480.785156 408.726562 480.847656 C 407.484375 480.90625 406.242188 480.9375 405 480.9375 C 403.757812 480.9375 402.515625 480.90625 401.273438 480.847656 C 400.03125 480.785156 398.792969 480.695312 397.558594 480.570312 C 396.320312 480.449219 395.085938 480.296875 393.859375 480.117188 C 392.628906 479.933594 391.402344 479.722656 390.183594 479.476562 C 388.964844 479.234375 387.753906 478.964844 386.546875 478.660156 C 385.34375 478.359375 384.144531 478.027344 382.957031 477.667969 C 381.765625 477.308594 380.585938 476.917969 379.417969 476.5 C 378.246094 476.078125 377.089844 475.632812 375.941406 475.15625 C 374.792969 474.679688 373.65625 474.179688 372.53125 473.648438 C 371.410156 473.117188 370.300781 472.558594 369.203125 471.972656 C 368.105469 471.386719 367.027344 470.773438 365.960938 470.132812 C 364.894531 469.496094 363.84375 468.828125 362.8125 468.140625 C 361.777344 467.449219 360.761719 466.734375 359.765625 465.992188 C 358.765625 465.253906 357.785156 464.488281 356.824219 463.699219 C 355.863281 462.910156 354.925781 462.101562 354.003906 461.265625 C 353.082031 460.429688 352.183594 459.574219 351.304688 458.695312 C 350.425781 457.816406 349.570312 456.917969 348.734375 455.996094 C 347.898438 455.074219 347.085938 454.136719 346.300781 453.175781 C 345.511719 452.214844 344.746094 451.234375 344.007812 450.234375 C 343.265625 449.238281 342.550781 448.222656 341.859375 447.1875 C 341.167969 446.15625 340.503906 445.105469 339.867188 444.039062 C 339.226562 442.972656 338.613281 441.894531 338.027344 440.796875 C 337.441406 439.699219 336.882812 438.589844 336.351562 437.46875 C 335.820312 436.34375 335.320312 435.207031 334.84375 434.058594 C 334.367188 432.910156 333.921875 431.753906 333.5 430.582031 C 333.082031 429.414062 332.691406 428.234375 332.332031 427.042969 C 331.972656 425.855469 331.640625 424.65625 331.339844 423.453125 C 331.035156 422.246094 330.765625 421.035156 330.523438 419.816406 C 330.277344 418.597656 330.066406 417.371094 329.882812 416.140625 C 329.703125 414.914062 329.550781 413.679688 329.429688 412.441406 C 329.304688 411.207031 329.214844 409.96875 329.152344 408.726562 C 329.09375 407.484375 329.0625 406.242188 329.0625 405 C 329.0625 403.757812 329.09375 402.515625 329.152344 401.273438 C 329.214844 400.03125 329.304688 398.792969 329.429688 397.558594 C 329.550781 396.320312 329.703125 395.085938 329.882812 393.859375 C 330.066406 392.628906 330.277344 391.402344 330.523438 390.183594 C 330.765625 388.964844 331.035156 387.753906 331.339844 386.546875 C 331.640625 385.34375 331.972656 384.144531 332.332031 382.957031 C 332.691406 381.765625 333.082031 380.585938 333.5 379.417969 C 333.921875 378.246094 334.367188 377.089844 334.84375 375.941406 C 335.320312 374.792969 335.820312 373.65625 336.351562 372.53125 C 336.882812 371.410156 337.441406 370.300781 338.027344 369.203125 C 338.613281 368.105469 339.226562 367.027344 339.867188 365.960938 C 340.503906 364.894531 341.167969 363.84375 341.859375 362.8125 C 342.550781 361.777344 343.265625 360.761719 344.007812 359.765625 C 344.746094 358.765625 345.511719 357.785156 346.300781 356.824219 C 347.085938 355.863281 347.898438 354.925781 348.734375 354.003906 C 349.570312 353.082031 350.425781 352.183594 351.304688 351.304688 C 352.183594 350.425781 353.082031 349.570312 354.003906 348.734375 C 354.925781 347.898438 355.863281 347.089844 356.824219 346.300781 C 357.785156 345.511719 358.765625 344.746094 359.765625 344.007812 C 360.761719 343.265625 361.777344 342.550781 362.8125 341.859375 C 363.84375 341.167969 364.894531 340.503906 365.960938 339.867188 C 367.027344 339.226562 368.105469 338.613281 369.203125 338.027344 C 370.300781 337.441406 371.410156 336.882812 372.53125 336.351562 C 373.65625 335.820312 374.792969 335.320312 375.941406 334.84375 C 377.089844 334.367188 378.246094 333.921875 379.417969 333.5 C 380.585938 333.082031 381.765625 332.691406 382.957031 332.332031 C 384.144531 331.972656 385.34375 331.640625 386.546875 331.339844 C 387.753906 331.035156 388.964844 330.765625 390.183594 330.523438 C 391.402344 330.277344 392.628906 330.066406 393.859375 329.882812 C 395.085938 329.703125 396.320312 329.550781 397.558594 329.429688 C 398.792969 329.304688 400.03125 329.214844 401.273438 329.152344 C 402.515625 329.09375 403.757812 329.0625 405 329.0625 C 406.242188 329.0625 407.484375 329.09375 408.726562 329.152344 C 409.96875 329.214844 411.207031 329.304688 412.441406 329.429688 C 413.679688 329.550781 414.914062 329.703125 416.140625 329.882812 C 417.371094 330.066406 418.597656 330.277344 419.816406 330.523438 C 421.035156 330.765625 422.246094 331.035156 423.453125 331.339844 C 424.65625 331.640625 425.855469 331.972656 427.042969 332.332031 C 428.234375 332.691406 429.414062 333.082031 430.582031 333.5 C 431.753906 333.921875 432.910156 334.367188 434.058594 334.84375 C 435.207031 335.320312 436.34375 335.820312 437.46875 336.351562 C 438.589844 336.882812 439.699219 337.441406 440.796875 338.027344 C 441.894531 338.613281 442.972656 339.226562 444.039062 339.867188 C 445.105469 340.503906 446.15625 341.167969 447.1875 341.859375 C 448.222656 342.550781 449.238281 343.265625 450.234375 344.007812 C 451.234375 344.746094 452.214844 345.511719 453.175781 346.300781 C 454.136719 347.089844 455.074219 347.898438 455.996094 348.734375 C 456.917969 349.570312 457.816406 350.425781 458.695312 351.304688 C 459.574219 352.183594 460.429688 353.082031 461.265625 354.003906 C 462.101562 354.925781 462.910156 355.863281 463.699219 356.824219 C 464.488281 357.785156 465.253906 358.765625 465.992188 359.765625 C 466.734375 360.761719 467.449219 361.777344 468.140625 362.8125 C 468.828125 363.84375 469.496094 364.894531 470.132812 365.960938 C 470.773438 367.027344 471.386719 368.105469 471.972656 369.203125 C 472.558594 370.300781 473.117188 371.410156 473.648438 372.53125 C 474.179688 373.65625 474.679688 374.792969 475.15625 375.941406 C 475.632812 377.089844 476.078125 378.246094 476.5 379.417969 C 476.917969 380.585938 477.308594 381.765625 477.667969 382.957031 C 478.027344 384.144531 478.359375 385.34375 478.660156 386.546875 C 478.964844 387.753906 479.234375 388.964844 479.476562 390.183594 C 479.722656 391.402344 479.933594 392.628906 480.117188 393.859375 C 480.296875 395.085938 480.449219 396.320312 480.570312 397.558594 C 480.695312 398.792969 480.785156 400.03125 480.847656 401.273438 C 480.90625 402.515625 480.9375 403.757812 480.9375 405 Z M 480.9375 405 " fill-opacity="1" fill-rule="nonzero"/><path fill="#000000" d="M 101.25 405 L 101.25 480.9375 L 329.0625 480.9375 L 271.660156 423.535156 C 259.792969 411.667969 243.695312 405 226.914062 405 Z M 101.25 405 " fill-opacity="1" fill-rule="nonzero"/><path fill="#000000" d="M 101.25 303.75 L 101.25 379.6875 L 227.8125 379.6875 L 170.410156 322.285156 C 158.542969 310.417969 142.445312 303.75 125.664062 303.75 Z M 101.25 303.75 " fill-opacity="1" fill-rule="nonzero"/><path fill="#000000" d="M 405 708.75 L 329.0625 708.75 L 329.0625 480.9375 L 386.464844 538.339844 C 398.332031 550.207031 405 566.304688 405 583.085938 Z M 405 708.75 " fill-opacity="1" fill-rule="nonzero"/><path fill="#000000" d="M 506.25 708.75 L 430.3125 708.75 L 430.3125 582.1875 L 487.714844 639.589844 C 499.582031 651.457031 506.25 667.554688 506.25 684.335938 Z M 506.25 708.75 " fill-opacity="1" fill-rule="nonzero"/></svg>