<svg width="128" height="128" viewBox="0 0 128 128" fill="none" xmlns="http://www.w3.org/2000/svg">
<path d="M54.9289 22.9289L64 32L24 32V20L47.8579 20C50.51 20 53.0536 21.0536 54.9289 22.9289Z" fill="#210D2A"/>
<path d="M54.9289 38.9289L64 48L24 48V36H47.8579C50.51 36 53.0536 37.0536 54.9289 38.9289Z" fill="#210D2A"/>
<path d="M54.9289 54.9289L64 64L24 64V52H47.8579C50.51 52 53.0536 53.0536 54.9289 54.9289Z" fill="#210D2A"/>
<path d="M73.0711 41.0711L64 32L104 32V44H80.1421C77.49 44 74.9464 42.9464 73.0711 41.0711Z" fill="#210D2A"/>
<path d="M73.0711 57.0711L64 48L104 48V60H80.1421C77.49 60 74.9464 58.9464 73.0711 57.0711Z" fill="#210D2A"/>
<path d="M73.0711 73.0711L64 64L104 64V76H80.1421C77.49 76 74.9464 74.9464 73.0711 73.0711Z" fill="#210D2A"/>
<path d="M36 108L24 108L24 64L33.0711 73.0711C34.9464 74.9464 36 77.49 36 80.1421L36 108Z" fill="#210D2A"/>
</svg>
