<svg xmlns="http://www.w3.org/2000/svg" xmlns:xlink="http://www.w3.org/1999/xlink" width="1080" zoomAndPan="magnify" viewBox="0 0 810 809.999993" height="1080" preserveAspectRatio="xMidYMid meet" version="1.0"><rect x="-81" width="972" fill="#ffffff" y="-80.999999" height="971.999992" fill-opacity="1"/><rect x="-81" width="972" fill="#ffffff" y="-80.999999" height="971.999992" fill-opacity="1"/><path fill="#000000" d="M 389.179688 335.390625 L 446.582031 277.988281 C 458.449219 266.121094 474.546875 259.453125 491.328125 259.453125 L 616.992188 259.453125 L 559.589844 316.855469 C 547.722656 328.722656 531.625 335.390625 514.84375 335.390625 Z M 389.179688 335.390625 " fill-opacity="1" fill-rule="nonzero"/><path fill="#000000" d="M 496.757812 550.546875 L 554.160156 493.144531 C 566.027344 481.277344 582.125 474.609375 598.90625 474.609375 L 724.570312 474.609375 L 667.167969 532.011719 C 655.300781 543.878906 639.203125 550.546875 622.421875 550.546875 Z M 496.757812 550.546875 " fill-opacity="1" fill-rule="nonzero"/><path fill="#000000" d="M 420.820312 474.609375 L 363.417969 532.011719 C 351.550781 543.878906 335.453125 550.546875 318.671875 550.546875 L 193.007812 550.546875 L 250.410156 493.144531 C 262.277344 481.277344 278.375 474.609375 295.15625 474.609375 Z M 420.820312 474.609375 " fill-opacity="1" fill-rule="nonzero"/><path fill="#000000" d="M 313.242188 259.453125 L 255.839844 316.855469 C 243.972656 328.722656 227.875 335.390625 211.09375 335.390625 L 85.429688 335.390625 L 142.832031 277.988281 C 154.699219 266.121094 170.796875 259.453125 187.578125 259.453125 Z M 313.242188 259.453125 " fill-opacity="1" fill-rule="nonzero"/><path fill="#000000" d="M 724.570312 474.609375 L 724.570312 393.242188 C 724.570312 376.460938 717.902344 360.363281 706.035156 348.496094 L 616.992188 259.453125 L 616.992188 340.820312 C 616.992188 357.601562 623.660156 373.699219 635.527344 385.566406 Z M 724.570312 474.609375 " fill-opacity="1" fill-rule="nonzero"/><path fill="#000000" d="M 85.429688 335.390625 L 85.429688 416.757812 C 85.429688 433.539062 92.097656 449.636719 103.964844 461.503906 L 193.007812 550.546875 L 193.007812 469.179688 C 193.007812 452.398438 186.339844 436.300781 174.472656 424.433594 Z M 85.429688 335.390625 " fill-opacity="1" fill-rule="nonzero"/><path fill="#000000" d="M 313.242188 259.453125 L 313.242188 340.820312 C 313.242188 357.601562 319.910156 373.699219 331.777344 385.566406 L 496.757812 550.546875 L 496.757812 469.179688 C 496.757812 452.398438 490.089844 436.300781 478.222656 424.433594 Z M 313.242188 259.453125 " fill-opacity="1" fill-rule="nonzero"/></svg>