<svg xmlns="http://www.w3.org/2000/svg" xmlns:xlink="http://www.w3.org/1999/xlink" width="1080" zoomAndPan="magnify" viewBox="0 0 810 809.999993" height="1080" preserveAspectRatio="xMidYMid meet" version="1.0"><rect x="-81" width="972" fill="#ffffff" y="-80.999999" height="971.999992" fill-opacity="1"/><rect x="-81" width="972" fill="#ffffff" y="-80.999999" height="971.999992" fill-opacity="1"/><path fill="#000000" d="M 722.097656 383.171875 L 722.097656 459.109375 L 494.285156 459.109375 L 551.6875 401.707031 C 563.558594 389.839844 579.652344 383.171875 596.4375 383.171875 Z M 722.097656 383.171875 " fill-opacity="1" fill-rule="nonzero"/><path fill="#000000" d="M 418.347656 686.925781 L 494.285156 686.925781 L 494.285156 459.109375 L 436.882812 516.515625 C 425.015625 528.382812 418.347656 544.476562 418.347656 561.261719 Z M 418.347656 686.925781 " fill-opacity="1" fill-rule="nonzero"/><path fill="#000000" d="M 395.507812 687.121094 L 319.570312 687.121094 L 319.570312 459.308594 L 376.972656 516.710938 C 388.839844 528.578125 395.507812 544.675781 395.507812 561.457031 Z M 395.507812 687.121094 " fill-opacity="1" fill-rule="nonzero"/><path fill="#000000" d="M 91.757812 383.371094 L 91.757812 459.308594 L 319.570312 459.308594 L 262.167969 401.90625 C 250.300781 390.039062 234.203125 383.371094 217.417969 383.371094 Z M 91.757812 383.371094 " fill-opacity="1" fill-rule="nonzero"/><path fill="#000000" d="M 316.40625 265.78125 L 392.34375 265.78125 L 392.34375 493.59375 L 334.941406 436.191406 C 323.074219 424.324219 316.40625 408.226562 316.40625 391.445312 Z M 316.40625 265.78125 " fill-opacity="1" fill-rule="nonzero"/><path fill="#000000" d="M 493.59375 265.78125 L 417.65625 265.78125 L 417.65625 493.59375 L 475.058594 436.191406 C 486.925781 424.324219 493.59375 408.226562 493.59375 391.441406 Z M 493.59375 265.78125 " fill-opacity="1" fill-rule="nonzero"/></svg>