<?xml version="1.0" encoding="UTF-8"?>
<svg id="Layer_1" data-name="Layer 1" xmlns="http://www.w3.org/2000/svg" viewBox="0 0 93.39 98.35">
  <defs>
    <style>
      .cls-1 {
        fill: none;
      }
    </style>
  </defs>
  <rect class="cls-1" width="93.39" height="98.35"/>
  <g>
    <path d="M50.17,19.68h-6.96l-29.41,29.55,4.55,4.75.38.07,24.55-24.48v49.1h6.89V19.68ZM50.32,29.56l24.61,24.54,4.67-4.78v-.3l-17.9-17.89c-.71-.59-2.47-1.57-3.37-1.57h-8.01Z"/>
    <polygon points="50.17 19.68 50.17 78.67 43.28 78.67 43.28 29.56 18.73 54.05 18.35 53.97 13.8 49.23 43.2 19.68 50.17 19.68"/>
    <path d="M50.32,29.56h8.01c.9,0,2.66.98,3.37,1.57l17.9,17.89v.3l-4.67,4.78-24.61-24.54Z"/>
  </g>
</svg>